{"title":"Madame Curie(1943)MPEG-4[DaScubaDude]","uid":15390987,"size":1222360309,"categoryP":"video","categoryS":"movies","magnet":"?xt=urn:btih:6f344cba3bb56999947ce49f2912c4f25711b38b&amp;dn=Madame+Curie%281943%29MPEG-4%5BDaScubaDude%5D&amp;tr=udp%3A%2F%2Ftracker.leechers-paradise.org%3A6969&amp;tr=udp%3A%2F%2Fzer0day.ch%3A1337&amp;tr=udp%3A%2F%2Fopen.demonii.com%3A1337&amp;tr=udp%3A%2F%2Ftracker.coppersurfer.tk%3A6969&amp;tr=udp%3A%2F%2Fexodus.desync.com%3A6969","seeders":2,"leechers":1,"uploader":"dascuba","files":1,"time":1469340016,"description":"Madame Curie (1943)\r\nNot Rated | 2h 4min | Biography, Drama, Romance | February 1944 (USA)\r\nDespite himself, accomplished physicist and avowed bachelor Pierre Curie falls for brilliant student Marie, and together they embark on the discovery of radium.\r\nDirectors: Mervyn LeRoy, Albert Lewin (uncredited)\r\nWriters: Paul Osborn (screen play), Hans Rameau (screen play) (as Paul H. Rameau) |\r\nStars: Greer Garson, Walter Pidgeon, Henry Travers\r\n\r\n General\r\nComplete name                            : Madame CurieMADAME_CURIE_Title1.mp4\r\nFormat                                   : MPEG-4\r\nFormat profile                           : Base Media\r\nCodec ID                                 : isom (isom/iso2/avc1/mp41)\r\nFile size                                : 1.14 GiB\r\nDuration                                 : 2h 3mn\r\nOverall bit rate                         : 1 319 Kbps\r\nMovie name                               : MADAME_CURIE\r\nGenre                                    : Drama\r\nWriting application                      : Lavf54.6.100\r\n\r\nVideo\r\nID                                       : 1\r\nFormat                                   : AVC\r\nFormat/Info                              : Advanced Video Codec\r\nFormat profile                           :   \r\nFormat settings, CABAC                   : No\r\nFormat settings, ReFrames                : 6 frames\r\nFormat settings, GOP                     : M=1, N=60\r\nCodec ID                                 : avc1\r\nCodec ID/Info                            : Advanced Video Coding\r\nDuration                                 : 2h 3mn\r\nBit rate                                 : 1 204 Kbps\r\nWidth                                    : 720 pixels\r\nHeight                                   : 540 pixels\r\nDisplay aspect ratio                     : 4:3\r\nFrame rate mode                          : Constant\r\nFrame rate                               : 29.970 (30000/1001) fps\r\nColor space                              : YUV\r\nChroma subsampling                       : 4:2:0\r\nBit depth                                : 8 bits\r\nScan type                                : Progressive\r\nBits/(Pixel*Frame)                       : 0.103\r\nStream size                              : 1.04 GiB (91%)\r\n\r\nAudio\r\nID                                       : 2\r\nFormat                                   : AAC\r\nFormat/Info                              : Advanced Audio Codec\r\nFormat profile                           : LC\r\nCodec ID                                 : 40\r\nDuration                                 : 2h 3mn\r\nBit rate mode                            : Constant\r\nBit rate                                 : 108 Kbps\r\nChannel(s)                               : 2 channels\r\nChannel(s)_Original                      : 1 channel\r\nChannel positions                        : Front: C\r\nSampling rate                            : 44.1 KHz\r\nFrame rate                               : 43.066 fps (1024 spf)\r\nCompression mode                         : Lossy\r\nStream size                              : 95.8 MiB (8%)\r\nDefault                                  : Yes\r\nAlternate group                          : 1","torrent":{"xt":"urn:btih:6f344cba3bb56999947ce49f2912c4f25711b38b","amp;dn":"Madame+Curie%281943%29MPEG-4%5BDaScubaDude%5D","amp;tr":["udp%3A%2F%2Ftracker.leechers-paradise.org%3A6969","udp%3A%2F%2Fzer0day.ch%3A1337","udp%3A%2F%2Fopen.demonii.com%3A1337","udp%3A%2F%2Ftracker.coppersurfer.tk%3A6969","udp%3A%2F%2Fexodus.desync.com%3A6969"],"infoHash":"6f344cba3bb56999947ce49f2912c4f25711b38b","infoHashBuffer":{"type":"Buffer","data":[111,52,76,186,59,181,105,153,148,124,228,159,41,18,196,242,87,17,179,139]},"announce":[],"urlList":[]}}